<!DOCTYPE svg PUBLIC "-//W3C//DTD SVG 1.1//EN" "http://www.w3.org/Graphics/SVG/1.1/DTD/svg11.dtd">
<!-- Uploaded to: SVG Repo, www.svgrepo.com, Transformed by: SVG Repo Mixer Tools -->
<svg height="800px" width="800px" version="1.1" id="Layer_1" xmlns="http://www.w3.org/2000/svg" xmlns:xlink="http://www.w3.org/1999/xlink" viewBox="0 0 504.719 504.719" xml:space="preserve" fill="#000000">
<g id="SVGRepo_bgCarrier" stroke-width="0"/>
<g id="SVGRepo_tracerCarrier" stroke-linecap="round" stroke-linejoin="round"/>
<g id="SVGRepo_iconCarrier"> <path style="fill:#FFE079;" d="M486.4,286.706c8.533-0.853,17.92,10.24,10.24,19.627c-7.68,9.387-58.027,69.12-58.027,69.12 s37.547,81.067,42.667,91.307c6.827,11.947-2.56,21.333-15.36,16.213c-11.093-4.267-102.4-42.667-102.4-42.667 s-57.173,49.493-65.707,56.32c-9.387,8.533-20.48-0.853-19.627-11.093c0.853-10.24,10.24-82.773,10.24-82.773 s-62.293-37.547-79.36-47.787c-16.213-9.387-5.973-19.627,5.12-21.333c11.947-2.56,98.133-22.187,98.133-22.187 s11.947-77.653,13.653-89.6c1.707-9.387,11.947-21.333,20.48-4.267c7.68,13.653,45.227,81.92,45.227,81.92 S477.867,287.56,486.4,286.706"/> <path style="fill:#51565F;" d="M289.28,504.306c-2.56,0-5.12-0.853-6.827-1.707c-5.973-3.413-10.24-10.24-9.387-17.067l10.24-79.36 c-11.947-6.827-62.293-37.547-76.8-46.08c-9.387-5.973-11.093-11.947-10.24-16.213c1.707-7.68,9.387-11.947,17.067-13.653 c10.24-1.707,80.213-17.92,94.72-21.333c2.56-14.507,11.093-75.947,13.653-86.187c1.707-7.68,5.973-15.36,13.653-16.213 c4.267-0.853,9.387,0.853,14.507,11.093l43.52,79.36c15.36-2.56,85.333-12.8,93.013-13.653l0,0c5.973-0.853,12.8,2.56,16.213,8.533 c3.413,5.973,2.56,11.947-1.707,17.067l-56.32,67.413c6.827,13.653,37.547,79.36,41.813,88.747 c3.413,6.827,3.413,14.507-0.853,18.773c-4.267,5.12-11.947,5.973-20.48,2.56c-9.387-4.267-85.333-34.987-99.84-40.96 c-10.24,8.533-56.32,48.64-64,55.467C296.107,503.453,292.693,504.306,289.28,504.306z M335.36,214.173L335.36,214.173 c-2.56,0-5.12,4.267-6.827,9.387c-1.707,11.093-13.653,88.747-13.653,89.6c0,1.707-1.707,3.413-3.413,3.413 c-3.413,0.853-86.187,20.48-98.133,22.187c-5.12,0.853-9.387,3.413-9.387,5.973c0,1.707,1.707,4.267,5.973,6.827 c17.067,10.24,78.507,46.933,79.36,47.787c1.707,0.853,2.56,2.56,1.707,4.267l-10.24,82.773c0,3.413,1.707,6.827,4.267,8.533 c1.707,0.853,4.267,1.707,7.68-0.853c8.533-6.827,65.707-57.173,65.707-57.173c0.853-0.853,2.56-1.707,4.267-0.853 c0.853,0,92.16,37.547,102.4,42.667c4.267,1.707,8.533,1.707,10.24-0.853c1.707-1.707,1.707-5.973,0-9.387 c-5.12-11.093-42.667-91.307-42.667-91.307c-0.853-1.707-0.853-3.413,0.853-4.267l58.027-69.12c2.56-3.413,1.707-5.973,0.853-7.68 c-1.707-2.56-5.12-5.12-7.68-4.267c-8.533,0.853-94.72,13.653-95.573,14.507c-1.707,0-3.413-0.853-4.267-2.56l-45.227-81.92 C338.773,215.88,337.067,214.173,335.36,214.173z M243.2,444.573c-0.853,0-1.707,0-2.56-0.853L1.707,264.52 C0.853,263.666,0,262.813,0,261.106c0-0.853,0-1.707,0.853-2.56c1.707-1.707,4.267-2.56,5.973-0.853l238.933,179.2 c0.853,0.853,1.707,1.707,1.707,3.413c0,0.853,0,1.707-0.853,2.56C245.76,443.72,244.907,444.573,243.2,444.573z M174.933,290.973 c-0.853,0-1.707,0-2.56-0.853l-37.547-33.28c-0.853-0.853-1.707-1.707-1.707-3.413c0-0.853,0-1.707,0.853-2.56 c1.707-1.707,4.267-1.707,5.973,0l37.547,33.28c0.853,0.853,1.707,1.707,1.707,3.413c0,0.853,0,1.707-0.853,2.56 C177.493,290.12,175.787,290.973,174.933,290.973z M430.933,265.373c-1.707,0-2.56-0.853-3.413-1.707l-170.667-256 C256,6.813,256,5.96,256,5.106c0-1.707,0.853-2.56,1.707-3.413c1.707-1.707,4.267-0.853,5.973,0.853l170.667,256 c0.853,0.853,0.853,1.707,0.853,2.56c0,1.707-0.853,2.56-1.707,3.413C432.64,265.373,431.787,265.373,430.933,265.373z M260.267,265.373c-0.853,0-2.56,0-3.413-0.853l-34.133-34.133c-0.853-0.853-0.853-1.707-0.853-3.413s0-2.56,0.853-3.413 c1.707-1.707,4.267-1.707,5.973,0l34.133,34.133c0.853,0.853,0.853,1.707,0.853,3.413s0,2.56-0.853,3.413 C261.973,265.373,261.12,265.373,260.267,265.373z M107.52,232.093c-0.853,0-1.707,0-2.56-0.853l-35.84-30.72 c-0.853-0.853-1.707-1.707-1.707-3.413c0-0.853,0-1.707,0.853-2.56c1.707-1.707,4.267-1.707,5.973-0.853l35.84,30.72 c0.853,0.853,1.707,1.707,1.707,3.413c0,0.853,0,1.707-0.853,2.56C110.08,232.093,108.373,232.093,107.52,232.093z M200.533,205.64 c-0.853,0-2.56,0-3.413-0.853l-34.133-34.133c-0.853-0.853-0.853-1.707-0.853-3.413s0-2.56,0.853-3.413 c1.707-1.707,4.267-1.707,5.973,0l34.133,34.133c0.853,0.853,0.853,1.707,0.853,3.413s0,2.56-0.853,3.413 C202.24,205.64,201.387,205.64,200.533,205.64z M285.867,180.04c-0.853,0-2.56-0.853-3.413-1.707l-32.427-38.4 c-0.853-0.853-0.853-1.707-0.853-2.56c0-0.853,0.853-2.56,1.707-3.413c1.707-1.707,4.267-1.707,5.973,0.853l32.427,38.4 c0.853,0.853,0.853,1.707,0.853,2.56c0,0.853-0.853,2.56-1.707,3.413C287.573,180.04,286.72,180.04,285.867,180.04z M41.813,178.333 c-0.853,0-1.707,0-2.56-0.853L1.707,145.053C0.853,144.2,0,143.346,0,141.64c0-0.853,0-1.707,0.853-2.56 c1.707-1.707,4.267-1.707,5.973-0.853l37.547,32.427c0.853,0.853,1.707,1.707,1.707,3.413c0,0.853,0,1.707-0.853,2.56 C44.373,177.48,43.52,178.333,41.813,178.333z M140.8,145.906c-0.853,0-2.56,0-3.413-0.853l-34.133-34.133 c-0.853-0.853-0.853-1.707-0.853-3.413s0-2.56,0.853-3.413c1.707-1.707,4.267-1.707,5.973,0l34.133,34.133 c0.853,0.853,0.853,1.707,0.853,3.413s0,2.56-0.853,3.413C142.507,145.906,141.653,145.906,140.8,145.906z M227.84,112.626 c-0.853,0-2.56-0.853-3.413-1.707l-30.72-36.693c-0.853-0.853-0.853-1.707-0.853-2.56c0-0.853,0.853-2.56,1.707-3.413 c1.707-1.707,4.267-0.853,5.973,0.853l30.72,36.693c0.853,0.853,0.853,1.707,0.853,2.56c0,0.853-0.853,2.56-1.707,3.413 C229.547,111.773,228.693,112.626,227.84,112.626z M81.067,86.173c-0.853,0-2.56,0-3.413-0.853l-25.6-25.6 C51.2,58.866,51.2,58.013,51.2,56.306c0-1.707,0-2.56,0.853-3.413c1.707-1.707,4.267-1.707,5.973,0l25.6,25.6 c0.853,0.853,0.853,1.707,0.853,3.413c0,1.707,0,2.56-0.853,3.413C82.773,86.173,81.92,86.173,81.067,86.173z M173.227,47.773 c-0.853,0-2.56-0.853-3.413-1.707l-32.427-38.4c-0.853-0.853-0.853-1.707-0.853-2.56c0-0.853,0.853-2.56,1.707-3.413 c1.707-1.707,4.267-1.707,5.973,0.853l32.427,38.4c0.853,0.853,0.853,1.707,0.853,2.56c0,0.853-0.853,2.56-1.707,3.413 C174.933,46.92,174.08,47.773,173.227,47.773z M29.867,34.973c-0.853,0-2.56,0-3.413-0.853l-25.6-25.6C0,7.666,0,6.813,0,5.106 s0-2.56,0.853-3.413c1.707-1.707,4.267-1.707,5.973,0l25.6,25.6C33.28,28.147,33.28,29,33.28,30.706c0,1.707,0,2.56-0.853,3.413 C31.573,34.973,30.72,34.973,29.867,34.973z"/> </g>
</svg>